<?xml version="1.0" standalone="no"?><!-- Generator: Gravit.io --><svg xmlns="http://www.w3.org/2000/svg" xmlns:xlink="http://www.w3.org/1999/xlink" style="isolation:isolate" viewBox="0 0 256 137" width="256" height="137"><defs><clipPath id="_clipPath_iWiQAX2brNiwY8L1LTPQaP585GmZ66VQ"><rect width="256" height="137"/></clipPath></defs><g clip-path="url(#_clipPath_iWiQAX2brNiwY8L1LTPQaP585GmZ66VQ)"><rect width="256" height="137" style="fill:rgb(0,170,255)" fill-opacity="0"/><g filter="url(#PLYkPtAFWm27CjKljKdk8HafJUpv21pU)"><path d=" M 152.021 92.353 L 152.021 28.885 L 172.394 4.219 L 172.394 37.854 L 172.394 37.854 Q 203.849 49.814 203.849 64.024 L 203.849 64.024 Q 206.032 92.392 173.905 92.392 L 173.905 92.392 L 173.905 92.392 L 152.021 92.353 Z  M 170.267 59.716 L 176.368 67.938 L 195.304 67.938 L 170.267 59.716 Z " fill-rule="evenodd" fill="rgb(255,255,255)"/><path d=" M 16.847 115.328 L 15.389 118.804 L 15.389 118.804 Q 14.081 118.206 12.96 117.888 L 12.96 117.888 L 12.96 117.888 Q 11.839 117.57 10.568 117.57 L 10.568 117.57 L 10.568 117.57 Q 9.634 117.57 9.129 117.925 L 9.129 117.925 L 9.129 117.925 Q 8.625 118.28 8.625 118.916 L 8.625 118.916 L 8.625 118.916 Q 8.625 119.364 9.241 119.775 L 9.241 119.775 L 9.241 119.775 Q 9.858 120.186 11.241 120.672 L 11.241 120.672 L 11.241 120.672 Q 13.52 121.494 15.464 122.971 L 15.464 122.971 L 15.464 122.971 Q 17.407 124.447 17.407 126.801 L 17.407 126.801 L 17.407 126.801 Q 17.407 129.492 15.482 130.987 L 15.482 130.987 L 15.482 130.987 Q 13.558 132.482 9.858 132.482 L 9.858 132.482 L 9.858 132.482 Q 8.699 132.482 6.775 132.033 L 6.775 132.033 L 6.775 132.033 Q 4.85 131.585 3.579 130.613 L 3.579 130.613 L 5.037 127.1 L 5.037 127.1 Q 6.345 127.698 7.559 128.016 L 7.559 128.016 L 7.559 128.016 Q 8.774 128.334 9.783 128.334 L 9.783 128.334 L 9.783 128.334 Q 11.129 128.334 11.839 127.96 L 11.839 127.96 L 11.839 127.96 Q 12.549 127.586 12.549 126.988 L 12.549 126.988 L 12.549 126.988 Q 12.549 126.241 11.839 125.643 L 11.839 125.643 L 11.839 125.643 Q 11.129 125.045 9.596 124.559 L 9.596 124.559 L 9.596 124.559 Q 7.429 123.849 5.504 122.522 L 5.504 122.522 L 5.504 122.522 Q 3.579 121.195 3.579 118.953 L 3.579 118.953 L 3.579 118.953 Q 3.579 116.374 5.485 114.898 L 5.485 114.898 L 5.485 114.898 Q 7.391 113.422 10.643 113.422 L 10.643 113.422 L 10.643 113.422 Q 11.801 113.422 13.633 113.908 L 13.633 113.908 L 13.633 113.908 Q 15.464 114.394 16.847 115.328 L 16.847 115.328 Z  M 43.456 132.482 L 43.456 132.482 L 43.456 132.482 Q 39.158 132.444 36.747 129.866 L 36.747 129.866 L 36.747 129.866 Q 34.337 127.287 34.337 122.914 L 34.337 122.914 L 34.337 122.914 Q 34.337 118.579 36.86 116.001 L 36.86 116.001 L 36.86 116.001 Q 39.382 113.422 43.755 113.422 L 43.755 113.422 L 43.755 113.422 Q 48.277 113.422 50.762 116.094 L 50.762 116.094 L 50.762 116.094 Q 53.247 118.766 53.247 123.101 L 53.247 123.101 L 53.247 123.101 Q 53.247 127.437 50.557 129.941 L 50.557 129.941 L 50.557 129.941 Q 47.866 132.444 43.456 132.482 Z  M 48.24 123.101 L 48.24 123.101 L 48.24 123.101 Q 48.24 120.523 47.1 119.046 L 47.1 119.046 L 47.1 119.046 Q 45.96 117.57 43.867 117.57 L 43.867 117.57 L 43.867 117.57 Q 41.737 117.57 40.541 118.878 L 40.541 118.878 L 40.541 118.878 Q 39.345 120.186 39.345 122.877 L 39.345 122.877 L 39.345 122.877 Q 39.345 125.568 40.373 126.951 L 40.373 126.951 L 40.373 126.951 Q 41.4 128.334 43.531 128.334 L 43.531 128.334 L 43.531 128.334 Q 45.623 128.334 46.931 127.082 L 46.931 127.082 L 46.931 127.082 Q 48.24 125.83 48.24 123.101 Z  M 72.046 114.281 L 72.046 112.562 L 72.046 112.562 Q 72.046 109.423 73.896 107.61 L 73.896 107.61 L 73.896 107.61 Q 75.746 105.798 79.109 105.798 L 79.109 105.798 L 79.109 105.798 Q 79.969 105.798 81.053 106.134 L 81.053 106.134 L 81.053 106.134 Q 82.136 106.471 82.734 106.956 L 82.734 106.956 L 81.352 110.469 L 81.352 110.469 Q 80.791 110.245 80.287 110.114 L 80.287 110.114 L 80.287 110.114 Q 79.782 109.984 79.334 109.984 L 79.334 109.984 L 79.334 109.984 Q 78.063 109.984 77.484 110.899 L 77.484 110.899 L 77.484 110.899 Q 76.904 111.815 76.904 113.235 L 76.904 113.235 L 76.904 114.281 L 80.343 114.281 L 81.875 118.056 L 76.904 118.056 L 76.904 132.033 L 72.046 132.033 L 72.046 118.056 L 69.243 118.056 L 69.243 114.281 L 72.046 114.281 Z  M 109.232 128.147 L 110.652 131.66 L 110.652 131.66 Q 110.054 132.146 108.951 132.463 L 108.951 132.463 L 108.951 132.463 Q 107.849 132.781 106.989 132.781 L 106.989 132.781 L 106.989 132.781 Q 103.626 132.781 101.701 131.08 L 101.701 131.08 L 101.701 131.08 Q 99.776 129.38 99.776 126.241 L 99.776 126.241 L 99.776 117.682 L 97.347 117.682 L 97.347 113.945 L 99.776 113.945 L 99.776 109.647 L 104.597 108.788 L 104.597 113.945 L 107.886 113.945 L 109.381 117.682 L 104.597 117.682 L 104.597 125.381 L 104.597 125.381 Q 104.597 126.801 105.27 127.717 L 105.27 127.717 L 105.27 127.717 Q 105.943 128.633 107.251 128.633 L 107.251 128.633 L 107.251 128.633 Q 107.737 128.633 108.223 128.52 L 108.223 128.52 L 108.223 128.52 Q 108.708 128.408 109.232 128.147 L 109.232 128.147 Z  M 147.053 132.033 L 142.979 132.033 L 139.204 120.934 L 135.579 132.033 L 131.468 132.033 L 125.451 114.58 L 130.459 113.908 L 133.636 124.447 L 136.626 113.908 L 141.97 113.908 L 145.147 124.447 L 148.099 113.908 L 153.219 113.908 L 147.053 132.033 Z  M 173.587 126.614 L 173.587 126.614 L 173.587 126.614 Q 173.587 127.399 174.223 128.016 L 174.223 128.016 L 174.223 128.016 Q 174.858 128.633 175.904 128.633 L 175.904 128.633 L 175.904 128.633 Q 176.913 128.633 177.941 128.184 L 177.941 128.184 L 177.941 128.184 Q 178.969 127.736 179.903 126.839 L 179.903 126.839 L 179.903 124.073 L 176.241 124.073 L 176.241 124.073 Q 174.97 124.073 174.279 124.858 L 174.279 124.858 L 174.279 124.858 Q 173.587 125.643 173.587 126.614 Z  M 175.979 132.482 L 175.979 132.482 L 175.979 132.482 Q 172.653 132.482 171.046 130.856 L 171.046 130.856 L 171.046 130.856 Q 169.439 129.23 169.439 126.614 L 169.439 126.614 L 169.439 126.614 Q 169.439 123.811 171.345 122.317 L 171.345 122.317 L 171.345 122.317 Q 173.251 120.822 176.315 120.822 L 176.315 120.822 L 179.866 120.822 L 179.866 120.822 Q 179.828 119.439 179.062 118.673 L 179.062 118.673 L 179.062 118.673 Q 178.296 117.907 176.951 117.907 L 176.951 117.907 L 176.951 117.907 Q 175.68 117.907 174.185 118.262 L 174.185 118.262 L 174.185 118.262 Q 172.69 118.617 171.681 119.102 L 171.681 119.102 L 170.373 115.066 L 170.373 115.066 Q 171.42 114.356 173.569 113.889 L 173.569 113.889 L 173.569 113.889 Q 175.717 113.422 176.876 113.422 L 176.876 113.422 L 176.876 113.422 Q 180.127 113.422 182.444 115.309 L 182.444 115.309 L 182.444 115.309 Q 184.762 117.196 184.762 120.112 L 184.762 120.112 L 184.762 132.033 L 182.258 132.033 L 181.062 130.501 L 181.062 130.501 Q 180.053 131.286 178.689 131.884 L 178.689 131.884 L 178.689 131.884 Q 177.324 132.482 175.979 132.482 Z  M 213.389 113.908 L 213.389 113.908 L 214.361 117.794 L 214.361 117.794 Q 213.127 117.794 211.502 118.505 L 211.502 118.505 L 211.502 118.505 Q 209.876 119.215 208.306 120.597 L 208.306 120.597 L 208.306 132.033 L 203.448 132.033 L 203.448 113.908 L 205.989 113.908 L 207.596 116.561 L 207.596 116.561 Q 208.717 115.589 210.324 114.749 L 210.324 114.749 L 210.324 114.749 Q 211.931 113.908 213.389 113.908 Z  M 240.409 132.482 L 240.409 132.482 L 240.409 132.482 Q 235.7 132.482 232.991 129.903 L 232.991 129.903 L 232.991 129.903 Q 230.281 127.324 230.281 122.989 L 230.281 122.989 L 230.281 122.989 Q 230.281 118.654 232.729 116.038 L 232.729 116.038 L 232.729 116.038 Q 235.177 113.422 239.4 113.422 L 239.4 113.422 L 239.4 113.422 Q 243.661 113.422 245.66 116.243 L 245.66 116.243 L 245.66 116.243 Q 247.66 119.065 247.66 122.914 L 247.66 122.914 L 247.66 124.409 L 235.439 124.409 L 235.439 124.409 Q 235.775 126.203 237.083 127.268 L 237.083 127.268 L 237.083 127.268 Q 238.391 128.334 240.522 128.334 L 240.522 128.334 L 240.522 128.334 Q 241.755 128.334 242.745 128.016 L 242.745 128.016 L 242.745 128.016 Q 243.736 127.698 245.044 127.1 L 245.044 127.1 L 246.464 130.613 L 246.464 130.613 Q 245.193 131.585 243.381 132.033 L 243.381 132.033 L 243.381 132.033 Q 241.568 132.482 240.409 132.482 Z  M 235.476 121.158 L 243.063 121.158 L 243.063 121.158 Q 242.689 119.327 241.717 118.448 L 241.717 118.448 L 241.717 118.448 Q 240.746 117.57 239.288 117.57 L 239.288 117.57 L 239.288 117.57 Q 237.793 117.57 236.784 118.486 L 236.784 118.486 L 236.784 118.486 Q 235.775 119.401 235.476 121.158 L 235.476 121.158 Z " fill-rule="evenodd" fill="rgb(255,255,255)"/><path d=" M 72.161 52.992 Q 74.297 52.206 75.779 52.206 L 75.779 52.206 L 75.779 52.206 Q 78.13 52.206 79.697 53.887 L 79.697 53.887 L 79.697 53.887 Q 81.264 55.569 81.264 58.708 L 81.264 58.708 L 81.264 91.895 L 101.637 91.895 L 101.637 58.26 L 101.637 58.26 Q 101.637 57.587 101.581 56.858 L 101.581 56.858 L 101.581 56.858 Q 101.525 56.13 101.525 55.457 L 101.525 55.457 L 101.525 55.457 Q 103.876 54.336 106.339 53.271 L 106.339 53.271 L 106.339 53.271 Q 108.801 52.206 110.704 52.206 L 110.704 52.206 L 110.704 52.206 Q 113.055 52.206 114.622 53.887 L 114.622 53.887 L 114.622 53.887 Q 116.189 55.569 116.189 58.708 L 116.189 58.708 L 116.189 91.895 L 136.563 91.895 L 136.563 58.26 L 136.563 58.26 Q 136.563 48.506 131.749 42.059 L 131.749 42.059 L 131.749 42.059 Q 126.936 35.612 116.301 35.612 L 116.301 35.612 L 116.301 35.612 Q 109.921 35.612 104.939 37.742 L 104.939 37.742 L 104.939 37.742 Q 99.958 39.873 96.6 41.779 L 96.6 41.779 L 96.6 41.779 L 96.6 41.779 Q 94.137 38.976 90.331 37.294 L 90.331 37.294 L 90.331 37.294 Q 86.525 35.612 81.376 35.612 L 81.376 35.612 L 81.376 35.612 Q 74.548 35.612 69.342 37.967 L 69.342 37.967 L 69.342 37.967 Q 67.589 38.76 66.045 39.515 L 72.161 52.992 Z  M 66.712 55.579 L 66.712 91.895 L 46.339 91.895 L 46.339 37.63 L 58.465 37.742 L 60.015 40.822 L 66.712 55.579 Z  M 12.98 67.79 L 12.98 67.79 L 12.98 37.605 L 33.354 37.605 L 33.354 73.732 L 33.354 73.732 Q 33.354 82.253 28.596 86.738 L 28.596 86.738 L 28.596 86.738 Q 23.839 91.223 11.973 95.035 L 11.973 95.035 L 3.689 78.89 L 3.689 78.89 Q 9.846 76.423 11.413 73.62 L 11.413 73.62 L 11.413 73.62 Q 12.98 70.817 12.98 67.79 L 12.98 67.79 Z  M 236.413 91.895 L 216.04 91.895 L 216.04 37.63 L 226.227 37.63 L 231.152 43.124 L 231.152 43.124 Q 234.51 40.882 239.1 39.2 L 239.1 39.2 L 239.1 39.2 Q 243.689 37.518 248.279 37.518 L 248.279 37.518 L 252.421 53.887 L 252.421 53.887 Q 248.391 53.887 244.137 55.009 L 244.137 55.009 L 244.137 55.009 Q 239.883 56.13 236.413 58.82 L 236.413 58.82 L 236.413 91.895 L 236.413 91.895 Z " fill-rule="evenodd" fill="rgb(255,255,255)"/></g><defs><filter id="PLYkPtAFWm27CjKljKdk8HafJUpv21pU" x="-4.421" y="-3.781" width="264.841" height="144.562" filterUnits="userSpaceOnUse"><feGaussianBlur xmlns="http://www.w3.org/2000/svg" in="SourceGraphic" stdDeviation="1.2880827188517086"/><feOffset xmlns="http://www.w3.org/2000/svg" dx="0" dy="0" result="pf_100_offsetBlur"/><feFlood xmlns="http://www.w3.org/2000/svg" flood-color="#000000" flood-opacity="1"/><feComposite xmlns="http://www.w3.org/2000/svg" in2="pf_100_offsetBlur" operator="in" result="pf_100_dropShadow"/><feBlend xmlns="http://www.w3.org/2000/svg" in="SourceGraphic" in2="pf_100_dropShadow" mode="normal"/></filter></defs></g></svg>