<?xml version="1.0" standalone="no"?><!-- Generator: Gravit.io --><svg xmlns="http://www.w3.org/2000/svg" xmlns:xlink="http://www.w3.org/1999/xlink" style="isolation:isolate" viewBox="0 0 250 89" width="250" height="89"><defs><clipPath id="_clipPath_Hgt5wNetBvzRmpeoMR9M4Bya4ElYH5cw"><rect width="250" height="89"/></clipPath></defs><g clip-path="url(#_clipPath_Hgt5wNetBvzRmpeoMR9M4Bya4ElYH5cw)"><rect width="250" height="89" style="fill:rgb(46,46,46)" fill-opacity="0"/><g><path d=" M 147.76 86.581 L 147.76 24.232 L 168.237 0 L 168.237 33.043 L 168.237 33.043 Q 199.852 44.792 199.852 58.752 L 199.852 58.752 Q 202.046 86.62 169.756 86.62 L 169.756 86.62 L 169.756 86.62 L 147.76 86.581 Z  M 166.099 54.52 L 172.231 62.597 L 191.264 62.597 L 166.099 54.52 Z " fill-rule="evenodd" fill="rgb(0,170,255)"/><path d=" M 68.821 47.697 Q 70.968 46.925 72.457 46.925 L 72.457 46.925 L 72.457 46.925 Q 74.82 46.925 76.395 48.577 L 76.395 48.577 L 76.395 48.577 Q 77.97 50.23 77.97 53.314 L 77.97 53.314 L 77.97 85.916 L 98.447 85.916 L 98.447 52.873 L 98.447 52.873 Q 98.447 52.212 98.391 51.496 L 98.391 51.496 L 98.391 51.496 Q 98.335 50.78 98.335 50.119 L 98.335 50.119 L 98.335 50.119 Q 100.698 49.018 103.173 47.972 L 103.173 47.972 L 103.173 47.972 Q 105.648 46.925 107.561 46.925 L 107.561 46.925 L 107.561 46.925 Q 109.924 46.925 111.499 48.577 L 111.499 48.577 L 111.499 48.577 Q 113.074 50.23 113.074 53.314 L 113.074 53.314 L 113.074 85.916 L 133.551 85.916 L 133.551 52.873 L 133.551 52.873 Q 133.551 43.29 128.713 36.957 L 128.713 36.957 L 128.713 36.957 Q 123.875 30.624 113.186 30.624 L 113.186 30.624 L 113.186 30.624 Q 106.773 30.624 101.766 32.717 L 101.766 32.717 L 101.766 32.717 Q 96.76 34.809 93.384 36.682 L 93.384 36.682 L 93.384 36.682 L 93.384 36.682 Q 90.909 33.928 87.084 32.276 L 87.084 32.276 L 87.084 32.276 Q 83.258 30.624 78.083 30.624 L 78.083 30.624 L 78.083 30.624 Q 71.22 30.624 65.988 32.937 L 65.988 32.937 L 65.988 32.937 Q 64.226 33.716 62.674 34.458 L 68.821 47.697 Z  M 63.344 50.239 L 63.344 85.916 L 42.867 85.916 L 42.867 32.607 L 55.056 32.717 L 56.613 35.742 L 63.344 50.239 Z  M 9.338 62.235 L 9.338 62.235 L 9.338 32.582 L 29.815 32.582 L 29.815 68.073 L 29.815 68.073 Q 29.815 76.444 25.034 80.849 L 25.034 80.849 L 25.034 80.849 Q 20.252 85.255 8.326 89 L 8.326 89 L 0 73.139 L 0 73.139 Q 6.188 70.716 7.763 67.963 L 7.763 67.963 L 7.763 67.963 Q 9.338 65.209 9.338 62.235 L 9.338 62.235 Z  M 233.911 85.916 L 213.434 85.916 L 213.434 32.607 L 223.672 32.607 L 228.623 38.004 L 228.623 38.004 Q 231.998 35.801 236.611 34.149 L 236.611 34.149 L 236.611 34.149 Q 241.224 32.496 245.837 32.496 L 245.837 32.496 L 250 48.577 L 250 48.577 Q 245.95 48.577 241.674 49.679 L 241.674 49.679 L 241.674 49.679 Q 237.399 50.78 233.911 53.424 L 233.911 53.424 L 233.911 85.916 L 233.911 85.916 Z " fill-rule="evenodd" fill="rgb(255,255,255)"/></g></g></svg>