<?xml version="1.0" standalone="no"?><!-- Generator: Gravit.io --><svg xmlns="http://www.w3.org/2000/svg" xmlns:xlink="http://www.w3.org/1999/xlink" style="isolation:isolate" viewBox="0 0 250 30" width="250" height="30"><defs><clipPath id="_clipPath_RpRdum9C1VcKsX4ecBAfG0zqz2Ol7OLq"><rect width="250" height="30"/></clipPath></defs><g clip-path="url(#_clipPath_RpRdum9C1VcKsX4ecBAfG0zqz2Ol7OLq)"><rect width="250" height="30" style="fill:rgb(46,46,46)" fill-opacity="0"/><g><path d=" M 14.426 10.626 L 12.968 14.102 L 12.968 14.102 Q 11.66 13.504 10.539 13.186 L 10.539 13.186 L 10.539 13.186 Q 9.418 12.869 8.147 12.869 L 8.147 12.869 L 8.147 12.869 Q 7.213 12.869 6.708 13.224 L 6.708 13.224 L 6.708 13.224 Q 6.204 13.579 6.204 14.214 L 6.204 14.214 L 6.204 14.214 Q 6.204 14.663 6.82 15.074 L 6.82 15.074 L 6.82 15.074 Q 7.437 15.485 8.82 15.971 L 8.82 15.971 L 8.82 15.971 Q 11.1 16.793 13.043 18.269 L 13.043 18.269 L 13.043 18.269 Q 14.986 19.745 14.986 22.1 L 14.986 22.1 L 14.986 22.1 Q 14.986 24.79 13.062 26.285 L 13.062 26.285 L 13.062 26.285 Q 11.137 27.78 7.437 27.78 L 7.437 27.78 L 7.437 27.78 Q 6.279 27.78 4.354 27.332 L 4.354 27.332 L 4.354 27.332 Q 2.429 26.883 1.159 25.912 L 1.159 25.912 L 2.616 22.399 L 2.616 22.399 Q 3.924 22.997 5.139 23.314 L 5.139 23.314 L 5.139 23.314 Q 6.353 23.632 7.362 23.632 L 7.362 23.632 L 7.362 23.632 Q 8.708 23.632 9.418 23.258 L 9.418 23.258 L 9.418 23.258 Q 10.128 22.884 10.128 22.287 L 10.128 22.287 L 10.128 22.287 Q 10.128 21.539 9.418 20.941 L 9.418 20.941 L 9.418 20.941 Q 8.708 20.343 7.176 19.857 L 7.176 19.857 L 7.176 19.857 Q 5.008 19.147 3.083 17.82 L 3.083 17.82 L 3.083 17.82 Q 1.159 16.494 1.159 14.251 L 1.159 14.251 L 1.159 14.251 Q 1.159 11.673 3.065 10.196 L 3.065 10.196 L 3.065 10.196 Q 4.971 8.72 8.222 8.72 L 8.222 8.72 L 8.222 8.72 Q 9.381 8.72 11.212 9.206 L 11.212 9.206 L 11.212 9.206 Q 13.043 9.692 14.426 10.626 L 14.426 10.626 L 14.426 10.626 Z  M 41.035 27.78 L 41.035 27.78 L 41.035 27.78 Q 36.737 27.743 34.327 25.164 L 34.327 25.164 L 34.327 25.164 Q 31.916 22.586 31.916 18.213 L 31.916 18.213 L 31.916 18.213 Q 31.916 13.878 34.439 11.299 L 34.439 11.299 L 34.439 11.299 Q 36.961 8.72 41.334 8.72 L 41.334 8.72 L 41.334 8.72 Q 45.856 8.72 48.341 11.392 L 48.341 11.392 L 48.341 11.392 Q 50.827 14.065 50.827 18.4 L 50.827 18.4 L 50.827 18.4 Q 50.827 22.735 48.136 25.239 L 48.136 25.239 L 48.136 25.239 Q 45.445 27.743 41.035 27.78 Z  M 45.819 18.4 L 45.819 18.4 L 45.819 18.4 Q 45.819 15.821 44.679 14.345 L 44.679 14.345 L 44.679 14.345 Q 43.539 12.869 41.446 12.869 L 41.446 12.869 L 41.446 12.869 Q 39.316 12.869 38.12 14.177 L 38.12 14.177 L 38.12 14.177 Q 36.924 15.485 36.924 18.176 L 36.924 18.176 L 36.924 18.176 Q 36.924 20.866 37.952 22.249 L 37.952 22.249 L 37.952 22.249 Q 38.98 23.632 41.11 23.632 L 41.11 23.632 L 41.11 23.632 Q 43.203 23.632 44.511 22.38 L 44.511 22.38 L 44.511 22.38 Q 45.819 21.128 45.819 18.4 Z  M 69.625 9.58 L 69.625 7.861 L 69.625 7.861 Q 69.625 4.721 71.475 2.909 L 71.475 2.909 L 71.475 2.909 Q 73.325 1.096 76.689 1.096 L 76.689 1.096 L 76.689 1.096 Q 77.548 1.096 78.632 1.433 L 78.632 1.433 L 78.632 1.433 Q 79.716 1.769 80.314 2.255 L 80.314 2.255 L 78.931 5.768 L 78.931 5.768 Q 78.37 5.544 77.866 5.413 L 77.866 5.413 L 77.866 5.413 Q 77.361 5.282 76.913 5.282 L 76.913 5.282 L 76.913 5.282 Q 75.642 5.282 75.063 6.198 L 75.063 6.198 L 75.063 6.198 Q 74.484 7.113 74.484 8.533 L 74.484 8.533 L 74.484 9.58 L 77.922 9.58 L 79.454 13.354 L 74.484 13.354 L 74.484 27.332 L 69.625 27.332 L 69.625 13.354 L 66.822 13.354 L 66.822 9.58 L 69.625 9.58 L 69.625 9.58 Z  M 106.811 23.445 L 108.231 26.958 L 108.231 26.958 Q 107.633 27.444 106.531 27.762 L 106.531 27.762 L 106.531 27.762 Q 105.428 28.079 104.569 28.079 L 104.569 28.079 L 104.569 28.079 Q 101.205 28.079 99.28 26.379 L 99.28 26.379 L 99.28 26.379 Q 97.356 24.678 97.356 21.539 L 97.356 21.539 L 97.356 12.981 L 94.926 12.981 L 94.926 9.243 L 97.356 9.243 L 97.356 4.946 L 102.177 4.086 L 102.177 9.243 L 105.465 9.243 L 106.96 12.981 L 102.177 12.981 L 102.177 20.68 L 102.177 20.68 Q 102.177 22.1 102.849 23.015 L 102.849 23.015 L 102.849 23.015 Q 103.522 23.931 104.83 23.931 L 104.83 23.931 L 104.83 23.931 Q 105.316 23.931 105.802 23.819 L 105.802 23.819 L 105.802 23.819 Q 106.288 23.707 106.811 23.445 L 106.811 23.445 L 106.811 23.445 Z  M 144.632 27.332 L 140.558 27.332 L 136.784 16.232 L 133.159 27.332 L 129.048 27.332 L 123.031 9.879 L 128.039 9.206 L 131.215 19.745 L 134.205 9.206 L 139.549 9.206 L 142.726 19.745 L 145.678 9.206 L 150.798 9.206 L 144.632 27.332 L 144.632 27.332 Z  M 171.166 21.913 L 171.166 21.913 L 171.166 21.913 Q 171.166 22.698 171.802 23.314 L 171.802 23.314 L 171.802 23.314 Q 172.437 23.931 173.484 23.931 L 173.484 23.931 L 173.484 23.931 Q 174.493 23.931 175.52 23.482 L 175.52 23.482 L 175.52 23.482 Q 176.548 23.034 177.482 22.137 L 177.482 22.137 L 177.482 19.371 L 173.82 19.371 L 173.82 19.371 Q 172.549 19.371 171.858 20.156 L 171.858 20.156 L 171.858 20.156 Q 171.166 20.941 171.166 21.913 Z  M 173.558 27.78 L 173.558 27.78 L 173.558 27.78 Q 170.232 27.78 168.625 26.155 L 168.625 26.155 L 168.625 26.155 Q 167.018 24.529 167.018 21.913 L 167.018 21.913 L 167.018 21.913 Q 167.018 19.11 168.924 17.615 L 168.924 17.615 L 168.924 17.615 Q 170.83 16.12 173.895 16.12 L 173.895 16.12 L 177.445 16.12 L 177.445 16.12 Q 177.408 14.737 176.642 13.971 L 176.642 13.971 L 176.642 13.971 Q 175.875 13.205 174.53 13.205 L 174.53 13.205 L 174.53 13.205 Q 173.259 13.205 171.764 13.56 L 171.764 13.56 L 171.764 13.56 Q 170.27 13.915 169.26 14.401 L 169.26 14.401 L 167.952 10.365 L 167.952 10.365 Q 168.999 9.655 171.148 9.187 L 171.148 9.187 L 171.148 9.187 Q 173.297 8.72 174.455 8.72 L 174.455 8.72 L 174.455 8.72 Q 177.707 8.72 180.024 10.608 L 180.024 10.608 L 180.024 10.608 Q 182.341 12.495 182.341 15.41 L 182.341 15.41 L 182.341 27.332 L 179.837 27.332 L 178.641 25.8 L 178.641 25.8 Q 177.632 26.584 176.268 27.182 L 176.268 27.182 L 176.268 27.182 Q 174.904 27.78 173.558 27.78 Z  M 210.968 9.206 L 210.968 9.206 L 211.94 13.093 L 211.94 13.093 Q 210.707 13.093 209.081 13.803 L 209.081 13.803 L 209.081 13.803 Q 207.455 14.513 205.886 15.896 L 205.886 15.896 L 205.886 27.332 L 201.027 27.332 L 201.027 9.206 L 203.569 9.206 L 205.176 11.86 L 205.176 11.86 Q 206.297 10.888 207.904 10.047 L 207.904 10.047 L 207.904 10.047 Q 209.511 9.206 210.968 9.206 Z  M 237.989 27.78 L 237.989 27.78 L 237.989 27.78 Q 233.28 27.78 230.57 25.202 L 230.57 25.202 L 230.57 25.202 Q 227.861 22.623 227.861 18.288 L 227.861 18.288 L 227.861 18.288 Q 227.861 13.952 230.309 11.336 L 230.309 11.336 L 230.309 11.336 Q 232.757 8.72 236.98 8.72 L 236.98 8.72 L 236.98 8.72 Q 241.24 8.72 243.24 11.542 L 243.24 11.542 L 243.24 11.542 Q 245.239 14.364 245.239 18.213 L 245.239 18.213 L 245.239 19.708 L 233.018 19.708 L 233.018 19.708 Q 233.354 21.502 234.663 22.567 L 234.663 22.567 L 234.663 22.567 Q 235.971 23.632 238.101 23.632 L 238.101 23.632 L 238.101 23.632 Q 239.334 23.632 240.324 23.314 L 240.324 23.314 L 240.324 23.314 Q 241.315 22.997 242.623 22.399 L 242.623 22.399 L 244.043 25.912 L 244.043 25.912 Q 242.772 26.883 240.96 27.332 L 240.96 27.332 L 240.96 27.332 Q 239.147 27.78 237.989 27.78 Z  M 233.055 16.456 L 240.642 16.456 L 240.642 16.456 Q 240.268 14.625 239.297 13.747 L 239.297 13.747 L 239.297 13.747 Q 238.325 12.869 236.867 12.869 L 236.867 12.869 L 236.867 12.869 Q 235.373 12.869 234.364 13.784 L 234.364 13.784 L 234.364 13.784 Q 233.354 14.7 233.055 16.456 L 233.055 16.456 L 233.055 16.456 Z " fill-rule="evenodd" fill="rgb(255,255,255)"/></g></g></svg>