<?xml version="1.0" standalone="no"?><!-- Generator: Gravit.io --><svg xmlns="http://www.w3.org/2000/svg" xmlns:xlink="http://www.w3.org/1999/xlink" style="isolation:isolate" viewBox="0 0 1000 160" width="1000" height="160"><rect x="467.9" y="123.05" width="64" height="14.4" transform="matrix(1,0,0,1,0,0)" fill="rgb(17,17,17)"/><rect x="377.5" y="123.05" width="64" height="14.4" transform="matrix(1,0,0,1,0,0)" fill="rgb(17,17,17)"/><path d=" M 46 23.55 L 46 39.35 L 79.3 39.35 L 79.3 136.65 L 97.7 136.65 L 97.7 39.35 L 131.1 39.35 L 131.1 23.55 L 46 23.55 Z " fill="rgb(17,17,17)"/><path d=" M 240.7 136.65 L 222.1 136.65 L 222.1 85.75 L 170 85.75 L 170 136.65 L 151.5 136.65 L 151.5 23.65 L 169.9 23.65 L 169.9 69.85 L 222 69.85 L 222 23.65 L 240.6 23.65 L 240.6 136.65 L 240.7 136.65 Z " fill="rgb(17,17,17)"/><path d=" M 292.2 91.45 L 292.2 136.65 L 273.8 136.65 L 273.8 23.65 L 305.6 23.65 C 320.3 23.65 331.1 26.45 338.1 31.95 C 345.2 37.45 348.6 45.65 348.6 56.65 C 348.6 70.65 341.2 80.65 326.6 86.75 L 358.4 136.85 L 337.6 136.85 L 310.7 91.65 L 292.2 91.65 L 292.2 91.45 Z  M 292.2 76.25 L 305 76.25 C 313.6 76.25 319.9 74.55 323.6 71.45 C 327.5 68.25 329.4 63.45 329.4 57.25 C 329.4 50.85 327.4 46.25 323.2 43.35 C 319 40.55 312.7 39.15 304.4 39.15 L 292.2 39.15 L 292.2 76.25" fill="rgb(17,17,17)"/><path d=" M 575.6 136.65 L 557.3 136.65 L 557.3 23.65 L 621.1 23.65 L 621.1 39.25 L 575.6 39.25 L 575.6 74.55 L 618.4 74.55 L 618.4 90.15 L 575.6 90.15 L 575.6 136.65 Z " fill="rgb(17,17,17)"/><path d=" M 745.3 80.05 C 745.3 98.45 740.7 112.75 731.4 122.95 C 722.1 133.15 709.1 138.15 692.3 138.15 C 675.2 138.15 662.2 133.05 653 122.95 C 643.7 112.75 639.3 98.45 639.3 79.85 C 639.3 61.25 643.9 46.75 653.2 36.95 C 662.4 26.95 675.4 21.85 692.5 21.85 C 709.4 21.85 722.4 26.95 731.4 37.05 C 740.7 47.15 745.3 61.65 745.3 80.05 Z  M 659 80.05 C 659 93.95 661.8 104.55 667.4 111.75 C 673 119.05 681.4 122.55 692.5 122.55 C 703.6 122.55 711.8 118.95 717.4 111.95 C 723 104.85 725.8 94.35 725.8 80.15 C 725.8 66.25 723 55.65 717.5 48.65 C 711.9 41.35 703.6 37.85 692.6 37.85 C 681.6 37.85 673.1 41.45 667.5 48.65 C 661.9 55.55 659 66.25 659 80.05 Z " fill="rgb(17,17,17)"/><path d=" M 773 136.65 L 773 23.65 L 791.4 23.65 L 791.4 120.95 L 839.3 120.95 L 839.3 136.75 L 773 136.75 L 773 136.65 Z " fill="rgb(17,17,17)"/><path d=" M 954 79.05 C 954 97.65 948.8 111.85 938.4 121.85 C 927.9 131.65 913.2 136.75 893.7 136.75 L 862 136.75 L 862 23.65 L 897 23.65 C 915.1 23.65 929.1 28.45 938.9 38.35 C 949.1 47.95 954 61.65 954 79.05 Z  M 934.6 79.75 C 934.6 52.65 921.9 39.15 896.7 39.15 L 880.6 39.15 L 880.6 121.15 L 893.8 121.15 C 921 121.15 934.6 107.35 934.6 79.75 Z " fill="rgb(17,17,17)"/><rect x="467.9" y="24.15" width="64" height="14.4" transform="matrix(1,0,0,1,0,0)" fill="rgb(75,145,208)"/><rect x="467.9" y="72.05" width="60.9" height="14.4" transform="matrix(1,0,0,1,0,0)" fill="rgb(83,197,122)"/><rect x="377.5" y="24.15" width="64" height="14.4" transform="matrix(1,0,0,1,0,0)" fill="rgb(75,145,208)"/><rect x="377.5" y="72.05" width="60.9" height="14.4" transform="matrix(1,0,0,1,0,0)" fill="rgb(83,197,122)"/></svg>