<?xml version="1.0" standalone="no"?><!-- Generator: Gravit.io --><svg xmlns="http://www.w3.org/2000/svg" xmlns:xlink="http://www.w3.org/1999/xlink" style="isolation:isolate" viewBox="0 0 1000 260" width="1000" height="260"><defs><clipPath id="_clipPath_OuXmRC8yplwrsCF3KCK84xXObLuZg8Go"><rect width="1000" height="260"/></clipPath></defs><g clip-path="url(#_clipPath_OuXmRC8yplwrsCF3KCK84xXObLuZg8Go)"><g><path d=" M 466.9 111.7 L 530.9 111.7 L 530.9 126.1 L 466.9 126.1 L 466.9 111.7 Z  M 376.5 111.7 L 440.5 111.7 L 440.5 126.1 L 376.5 126.1 L 376.5 111.7 Z  M 45 12.2 L 45 28 L 78.3 28 L 78.3 125.3 L 96.7 125.3 L 96.7 28 L 130.1 28 L 130.1 12.2 L 45 12.2 Z  M 239.7 125.3 L 221.1 125.3 L 221.1 74.4 L 169 74.4 L 169 125.3 L 150.5 125.3 L 150.5 12.3 L 168.9 12.3 L 168.9 58.5 L 221 58.5 L 221 12.3 L 239.6 12.3 L 239.6 125.3 L 239.7 125.3 Z " fill="rgb(255,255,255)" fill-opacity="0.59" vector-effect="non-scaling-stroke" stroke-width="1" stroke="rgb(0,0,0)" stroke-opacity="0.48" stroke-linejoin="miter" stroke-linecap="butt" stroke-miterlimit="4"/><clipPath id="_clipPath_9MdXjlt3dR6JQvonQ9TPJ2gMnzlstPEj"><path d=" M 45 10.5 L 955 10.5 L 955 249.5 L 45 249.5 L 45 10.5 Z " fill="rgb(255,255,255)"/></clipPath><g clip-path="url(#_clipPath_9MdXjlt3dR6JQvonQ9TPJ2gMnzlstPEj)"><path d=" M 291.2 80.1 L 291.2 125.3 L 272.8 125.3 L 272.8 12.3 L 304.6 12.3 C 319.3 12.3 330.1 15.1 337.1 20.6 C 344.2 26.1 347.6 34.3 347.6 45.3 C 347.6 59.3 340.2 69.3 325.6 75.4 L 357.4 125.5 L 336.6 125.5 L 309.7 80.3 L 291.2 80.3 L 291.2 80.1 Z  M 291.2 64.9 L 304 64.9 C 312.6 64.9 318.9 63.2 322.6 60.1 C 326.5 56.9 328.4 52.1 328.4 45.9 C 328.4 39.5 326.4 34.9 322.2 32 C 318 29.2 311.7 27.8 303.4 27.8 L 291.2 27.8 L 291.2 64.9 M 574.6 125.3 L 556.3 125.3 L 556.3 12.3 L 620.1 12.3 L 620.1 27.9 L 574.6 27.9 L 574.6 63.2 L 617.4 63.2 L 617.4 78.8 L 574.6 78.8 L 574.6 125.3 Z  M 744.3 68.7 C 744.3 87.1 739.7 101.4 730.4 111.6 C 721.1 121.8 708.1 126.8 691.3 126.8 C 674.2 126.8 661.2 121.7 652 111.6 C 642.7 101.4 638.3 87.1 638.3 68.5 C 638.3 49.9 642.9 35.4 652.2 25.6 C 661.4 15.6 674.4 10.5 691.5 10.5 C 708.4 10.5 721.4 15.6 730.4 25.7 C 739.7 35.8 744.3 50.3 744.3 68.7 Z  M 658 68.7 C 658 82.6 660.8 93.2 666.4 100.4 C 672 107.7 680.4 111.2 691.5 111.2 C 702.6 111.2 710.8 107.6 716.4 100.6 C 722 93.5 724.8 83 724.8 68.8 C 724.8 54.9 722 44.3 716.5 37.3 C 710.9 30 702.6 26.5 691.6 26.5 C 680.6 26.5 672.1 30.1 666.5 37.3 C 660.9 44.2 658 54.9 658 68.7 Z  M 772 125.3 L 772 12.3 L 790.4 12.3 L 790.4 109.6 L 838.3 109.6 L 838.3 125.4 L 772 125.4 L 772 125.3 Z  M 953 67.7 C 953 86.3 947.8 100.5 937.4 110.5 C 926.9 120.3 912.2 125.4 892.7 125.4 L 861 125.4 L 861 12.3 L 896 12.3 C 914.1 12.3 928.1 17.1 937.9 27 C 948.1 36.6 953 50.3 953 67.7 Z  M 933.6 68.4 C 933.6 41.3 920.9 27.8 895.7 27.8 L 879.6 27.8 L 879.6 109.8 L 892.8 109.8 C 920 109.8 933.6 96 933.6 68.4 Z  M 466.9 12.8 L 530.9 12.8 L 530.9 27.2 L 466.9 27.2 L 466.9 12.8 Z  M 466.9 60.7 L 527.8 60.7 L 527.8 75.1 L 466.9 75.1 L 466.9 60.7 Z  M 376.5 12.8 L 440.5 12.8 L 440.5 27.2 L 376.5 27.2 L 376.5 12.8 Z  M 376.5 60.7 L 437.4 60.7 L 437.4 75.1 L 376.5 75.1 L 376.5 60.7 Z  M 85.7 194.3 C 89 196.9 91 200.6 91.8 205.1 L 85 205.1 C 84.6 202.2 83.2 200 81.1 198.5 C 79 196.8 76.4 196.1 73.2 196.1 C 70.9 196.1 68.8 196.7 66.9 197.6 C 65 198.7 63.5 200.2 62.4 202.4 C 61.3 204.6 60.6 207.2 60.6 210.4 C 60.6 213.6 61.2 216.2 62.4 218.4 C 63.5 220.6 65 222.1 66.9 223.2 C 68.8 224.3 70.9 224.7 73.2 224.7 C 76.4 224.7 79 223.9 81.1 222.3 C 83.2 220.6 84.5 218.4 85 215.7 L 91.8 215.7 C 91 220.2 89 223.9 85.7 226.5 C 82.4 229.1 78.2 230.5 73.2 230.5 C 69.5 230.5 66 229.7 63.2 228.1 C 60.4 226.5 58 224.1 56.4 221.2 C 54.7 218.1 54 214.6 54 210.5 C 54 206.4 54.8 202.8 56.4 199.7 C 58.1 196.6 60.4 194.3 63.2 192.6 C 66 190.9 69.5 190.2 73.2 190.2 C 78.2 190.3 82.4 191.7 85.7 194.3 M 138.3 192.8 C 141.3 194.5 143.6 196.8 145.4 199.9 C 147.1 203 147.9 206.5 147.9 210.7 C 147.9 214.9 147 218.4 145.4 221.4 C 143.7 224.5 141.3 226.8 138.3 228.3 C 135.3 230 131.9 230.7 128.2 230.7 C 124.5 230.7 121 229.9 118.1 228.3 C 115.1 226.6 112.8 224.3 111 221.4 C 109.2 218.3 108.5 214.8 108.5 210.7 C 108.5 206.6 109.4 203 111 199.9 C 112.7 196.8 115.1 194.5 118.1 192.8 C 121.1 191.1 124.5 190.4 128.2 190.4 C 131.9 190.3 135.4 191.1 138.3 192.8 Z  M 121.7 197.6 C 119.7 198.7 118.2 200.2 116.9 202.4 C 115.6 204.6 115 207.2 115 210.4 C 115 213.6 115.7 216.2 116.9 218.3 C 118.1 220.5 119.8 222 121.7 223.1 C 123.7 224.2 125.9 224.6 128.2 224.6 C 130.5 224.6 132.7 224 134.7 223.1 C 136.7 222 138.2 220.5 139.5 218.3 C 140.7 216.1 141.4 213.5 141.4 210.4 C 141.4 207.2 140.7 204.6 139.5 202.4 C 138.3 200.2 136.6 198.7 134.7 197.6 C 132.7 196.5 130.5 196.1 128.2 196.1 C 125.9 196.1 123.7 196.5 121.7 197.6 Z  M 198.5 194.5 C 201.4 197.5 202.7 201.7 202.7 207.2 L 202.7 230 L 196.2 230 L 196.2 207.7 C 196.2 203.7 195.2 200.8 193.2 198.7 C 191.2 196.6 188.5 195.5 185 195.5 C 181.5 195.5 178.6 196.7 176.4 199 C 174.2 201.3 173.2 204.7 173.2 209.1 L 173.2 229.9 L 166.7 229.9 L 166.7 190.6 L 173.2 190.6 L 173.2 199.9 C 174.2 196.7 176 194.3 178.5 192.5 C 181 190.7 184 190 187.3 190 C 192 190.1 195.6 191.7 198.5 194.5 M 255 194.5 C 257.9 197.5 259.2 201.7 259.2 207.2 L 259.2 230 L 252.7 230 L 252.7 207.7 C 252.7 203.7 251.7 200.8 249.7 198.7 C 247.7 196.6 245 195.5 241.5 195.5 C 238 195.5 235.1 196.7 232.9 199 C 230.7 201.3 229.7 204.7 229.7 209.1 L 229.7 229.9 L 223.2 229.9 L 223.2 190.6 L 229.7 190.6 L 229.7 199.9 C 230.7 196.7 232.5 194.3 235 192.5 C 237.5 190.7 240.5 190 243.8 190 C 248.5 190.1 252.3 191.7 255 194.5 M 315.5 211.8 L 284.1 211.8 C 284.2 216.3 285.5 219.6 288 221.9 C 290.4 224.1 293.4 225.3 296.8 225.3 C 300 225.3 302.6 224.5 304.7 222.9 C 306.8 221.2 308.1 219.2 308.6 216.5 L 315.5 216.5 C 315.1 219.3 314 221.7 312.3 223.8 C 310.6 225.9 308.6 227.7 305.9 228.8 C 303.3 230 300.3 230.6 297 230.6 C 293.3 230.6 289.8 229.8 287 228.2 C 284.1 226.5 281.8 224.2 280.2 221.3 C 278.5 218.2 277.8 214.7 277.8 210.6 C 277.8 206.5 278.6 202.9 280.2 199.8 C 281.9 196.7 284.2 194.4 287 192.7 C 289.9 191 293.3 190.3 297 190.3 C 300.9 190.3 304.2 191.1 307 192.7 C 309.9 194.4 312.1 196.4 313.5 199.2 C 315 202 315.7 204.9 315.7 208.2 C 315.8 209.6 315.8 210.8 315.5 211.8 Z  M 307.8 201.4 C 306.7 199.4 305.2 198 303.3 197 C 301.4 196 299.3 195.6 297 195.6 C 293.5 195.6 290.4 196.7 288 198.9 C 285.6 201.1 284.3 204.4 284 208.7 L 309.1 208.7 C 309.4 205.8 308.9 203.3 307.8 201.4 Z  M 364.6 194.3 C 367.9 196.9 369.9 200.6 370.7 205.1 L 363.9 205.1 C 363.5 202.2 362.1 200 360 198.5 C 357.9 196.8 355.3 196.1 352.1 196.1 C 349.8 196.1 347.7 196.7 345.8 197.6 C 343.9 198.7 342.4 200.2 341.3 202.4 C 340.2 204.6 339.5 207.2 339.5 210.4 C 339.5 213.6 340.1 216.2 341.3 218.4 C 342.4 220.6 343.9 222.1 345.8 223.2 C 347.7 224.3 349.8 224.7 352.1 224.7 C 355.3 224.7 357.9 223.9 360 222.3 C 362.1 220.6 363.4 218.4 363.9 215.7 L 370.7 215.7 C 369.9 220.2 367.9 223.9 364.6 226.5 C 361.3 229.1 357.1 230.5 352.1 230.5 C 348.4 230.5 344.9 229.7 342.1 228.1 C 339.3 226.5 336.9 224.1 335.3 221.2 C 333.6 218.1 332.9 214.6 332.9 210.5 C 332.9 206.4 333.7 202.8 335.3 199.7 C 337 196.6 339.3 194.3 342.1 192.6 C 344.9 190.9 348.4 190.2 352.1 190.2 C 357.2 190.3 361.3 191.7 364.6 194.3 M 407.9 224.4 L 407.9 230.1 L 403 230.1 C 399 230.1 395.9 229.1 394 227.2 C 392 225.3 391 222.1 391 217.6 L 391 196.3 L 385.2 196.3 L 385.2 190.7 L 391 190.7 L 391 180.9 L 397.6 180.9 L 397.6 190.7 L 407.7 190.7 L 407.7 196.3 L 397.6 196.3 L 397.6 217.7 C 397.6 220.2 398 222 399 222.9 C 399.9 223.8 401.5 224.3 403.8 224.3 L 407.9 224.3 L 407.9 224.4 Z  M 425.4 176.3 C 426.2 175.5 427.3 175.2 428.6 175.2 C 429.9 175.2 431 175.5 431.8 176.3 C 432.6 177.1 433 178 433 179.2 C 433 180.4 432.6 181.4 431.8 182.1 C 431 182.9 429.9 183.2 428.6 183.2 C 427.3 183.2 426.2 182.9 425.4 182.1 C 424.6 181.3 424.2 180.4 424.2 179.2 C 424.2 178.1 424.5 177.1 425.4 176.3 Z  M 431.8 230.1 L 425.3 230.1 L 425.3 190.8 L 431.8 190.8 L 431.8 230.1 Z  M 484.5 194.5 C 487.4 197.5 488.7 201.7 488.7 207.2 L 488.7 230 L 482.2 230 L 482.2 207.7 C 482.2 203.7 481.2 200.8 479.2 198.7 C 477.2 196.6 474.5 195.5 471 195.5 C 467.5 195.5 464.6 196.7 462.4 199 C 460.2 201.3 459.2 204.7 459.2 209.1 L 459.2 229.9 L 452.7 229.9 L 452.7 190.6 L 459.2 190.6 L 459.2 199.9 C 460.2 196.7 462 194.3 464.5 192.5 C 467 190.7 470 190 473.3 190 C 478 190.1 481.7 191.7 484.5 194.5 M 535 193.2 C 537.6 195.1 539.5 197.7 540.5 200.9 L 540.5 190.9 L 547 190.9 L 547 230.9 C 547 234.5 546.2 237.7 544.7 240.6 C 543.2 243.5 541.1 245.6 538.3 247.2 C 535.5 248.7 532.3 249.5 528.6 249.5 C 523.3 249.5 519 248.2 515.6 245.6 C 512.3 243.1 510.1 239.5 509.2 235.2 L 515.6 235.2 C 516.4 237.8 517.8 239.9 519.9 241.4 C 522 242.9 524.7 243.6 528.1 243.6 C 531.6 243.6 534.6 242.5 536.9 240.2 C 539.2 237.9 540.4 234.8 540.4 230.7 L 540.4 220 C 539.3 223.2 537.5 225.7 534.9 227.7 C 532.3 229.6 529.1 230.6 525.2 230.6 C 521.7 230.6 518.6 229.8 515.8 228.2 C 513 226.5 511 224.2 509.4 221.3 C 507.9 218.2 507.1 214.7 507.1 210.6 C 507.1 206.5 507.9 202.9 509.4 199.8 C 510.9 196.7 513 194.4 515.8 192.7 C 518.6 191 521.6 190.3 525.2 190.3 C 529.1 190.3 532.3 191.2 535 193.2 M 517.5 199.9 C 515.1 202.4 513.9 206 513.9 210.5 C 513.9 215 515.1 218.5 517.5 221.1 C 519.9 223.6 523.1 225 527.1 225 C 529.6 225 531.9 224.4 534 223.2 C 536 222 537.6 220.3 538.7 218.1 C 539.8 215.9 540.5 213.4 540.5 210.5 C 540.5 207.6 539.9 205.1 538.7 202.9 C 537.6 200.7 535.9 199 534 197.8 C 532 196.6 529.7 196 527.1 196 C 523.1 196.1 519.9 197.4 517.5 199.9 Z  M 616.8 224.4 L 616.8 230.1 L 612 230.1 C 608 230.1 604.9 229.1 603 227.2 C 601 225.3 600 222.1 600 217.6 L 600 196.3 L 594.2 196.3 L 594.2 190.7 L 600 190.7 L 600 180.9 L 606.6 180.9 L 606.6 190.7 L 616.7 190.7 L 616.7 196.3 L 606.6 196.3 L 606.6 217.7 C 606.6 220.2 607 222 608 222.9 C 608.9 223.8 610.5 224.3 612.8 224.3 L 616.8 224.3 L 616.8 224.4 Z  M 666.1 194.5 C 669 197.5 670.3 201.7 670.3 207.2 L 670.3 230 L 663.8 230 L 663.8 207.7 C 663.8 203.7 662.8 200.8 660.8 198.7 C 658.8 196.6 656.1 195.5 652.6 195.5 C 649.1 195.5 646.2 196.7 644 199 C 641.8 201.3 640.8 204.7 640.8 209.1 L 640.8 229.9 L 634.3 229.9 L 634.3 176.9 L 640.8 176.9 L 640.8 199.9 C 641.8 196.7 643.6 194.3 646.1 192.5 C 648.6 190.7 651.6 190 654.9 190 C 659.6 190.1 663.3 191.7 666.1 194.5 M 726.6 211.8 L 695.2 211.8 C 695.3 216.3 696.6 219.6 699.1 221.9 C 701.5 224.1 704.5 225.3 707.9 225.3 C 711.1 225.3 713.7 224.5 715.8 222.9 C 717.9 221.2 719.2 219.2 719.7 216.5 L 726.6 216.5 C 726.2 219.3 725.1 221.7 723.4 223.8 C 721.7 226 719.7 227.7 717 228.8 C 714.4 230 711.4 230.6 708.1 230.6 C 704.4 230.6 700.9 229.8 698.1 228.2 C 695.2 226.5 692.9 224.2 691.3 221.3 C 689.6 218.2 688.9 214.7 688.9 210.6 C 688.9 206.5 689.7 202.9 691.3 199.8 C 693 196.7 695.3 194.4 698.1 192.7 C 700.9 191 704.4 190.3 708.1 190.3 C 712 190.3 715.3 191.1 718.1 192.7 C 720.9 194.3 723.1 196.4 724.6 199.2 C 726.1 202 726.8 204.9 726.8 208.2 C 726.8 209.6 726.7 210.8 726.6 211.8 M 718.7 201.4 C 717.6 199.4 716.1 198 714.2 197 C 712.3 196 710.2 195.6 707.9 195.6 C 704.4 195.6 701.3 196.7 698.9 198.9 C 696.5 201.1 695.2 204.4 694.9 208.7 L 720 208.7 C 720.4 205.8 719.8 203.3 718.7 201.4 M 801.7 193.2 C 804.3 195.1 806.2 197.7 807.2 200.9 L 807.2 177.2 L 813.7 177.2 L 813.7 230.2 L 807.2 230.2 L 807.2 220.2 C 806.1 223.4 804.3 225.9 801.7 227.9 C 799.1 229.8 795.9 230.8 792 230.8 C 788.5 230.8 785.4 230 782.6 228.4 C 779.8 226.7 777.8 224.4 776.2 221.5 C 774.7 218.4 773.9 214.9 773.9 210.8 C 773.9 206.7 774.7 203.1 776.2 200 C 777.7 196.9 779.8 194.6 782.6 192.9 C 785.4 191.2 788.4 190.5 792 190.5 C 795.9 190.3 799.1 191.2 801.7 193.2 M 784.3 199.9 C 781.9 202.4 780.7 206 780.7 210.5 C 780.7 215 781.9 218.5 784.3 221.1 C 786.7 223.6 789.9 225 793.9 225 C 796.4 225 798.7 224.4 800.8 223.2 C 802.8 222 804.4 220.3 805.5 218.1 C 806.6 215.9 807.3 213.4 807.3 210.5 C 807.3 207.6 806.7 205.1 805.5 202.9 C 804.4 200.7 802.7 199 800.8 197.8 C 798.8 196.6 796.5 196 793.9 196 C 789.9 196.1 786.7 197.4 784.3 199.9 Z  M 862.5 192.8 C 865.5 194.5 867.8 196.8 869.6 199.9 C 871.4 203 872.1 206.5 872.1 210.7 C 872.1 214.9 871.2 218.4 869.6 221.4 C 867.9 224.5 865.5 226.8 862.5 228.3 C 859.5 230 856.1 230.7 852.4 230.7 C 848.7 230.7 845.2 229.9 842.3 228.3 C 839.3 226.6 837 224.3 835.2 221.4 C 833.4 218.3 832.7 214.8 832.7 210.7 C 832.7 206.6 833.6 203 835.2 199.9 C 837 196.8 839.3 194.5 842.3 192.8 C 845.3 191.1 848.7 190.4 852.4 190.4 C 856.2 190.3 859.6 191.1 862.5 192.8 Z  M 845.9 197.6 C 843.9 198.7 842.4 200.2 841.1 202.4 C 839.9 204.6 839.2 207.2 839.2 210.4 C 839.2 213.6 839.9 216.2 841.1 218.3 C 842.3 220.5 844 222 845.9 223.1 C 847.9 224.2 850.1 224.6 852.4 224.6 C 854.7 224.6 856.9 224 858.9 223.1 C 860.9 222 862.4 220.5 863.7 218.3 C 864.9 216.1 865.6 213.5 865.6 210.4 C 865.6 207.2 864.9 204.6 863.7 202.4 C 862.5 200.2 860.8 198.7 858.9 197.6 C 856.9 196.5 854.7 196.1 852.4 196.1 C 850.1 196.1 847.9 196.5 845.9 197.6 Z  M 908.7 224.4 L 908.7 230.1 L 903.9 230.1 C 899.9 230.1 896.8 229.1 894.9 227.2 C 892.9 225.3 891.9 222.1 891.9 217.6 L 891.9 196.3 L 886 196.3 L 886 190.7 L 891.8 190.7 L 891.8 180.9 L 898.4 180.9 L 898.4 190.7 L 908.5 190.7 L 908.5 196.3 L 898.4 196.3 L 898.4 217.7 C 898.4 220.2 898.8 222 899.8 222.9 C 900.7 223.8 902.3 224.3 904.6 224.3 L 908.7 224.3 L 908.7 224.4 Z  M 949.7 193.8 C 952.3 196.1 954 199.2 954.7 203.2 L 948.4 203.2 C 948.1 200.9 947.2 198.9 945.5 197.5 C 943.8 196.1 941.6 195.3 938.9 195.3 C 936.6 195.3 934.7 195.9 933.4 197 C 932.1 198.1 931.4 199.6 931.4 201.5 C 931.4 202.9 931.8 204.1 932.7 205 C 933.6 205.9 934.7 206.5 936 207 C 937.3 207.4 939.1 208 941.4 208.4 C 944.3 209.1 946.7 209.7 948.5 210.5 C 950.3 211.2 951.8 212.3 953.1 213.8 C 954.3 215.3 955 217.3 955 220 C 955 223.2 953.8 225.8 951.4 227.8 C 949 229.8 945.8 230.8 941.8 230.8 C 937.2 230.8 933.3 229.7 930.3 227.4 C 927.3 225.2 925.6 222 925.1 218 L 931.4 218 C 931.6 220.4 932.7 222.3 934.5 223.8 C 936.4 225.2 938.8 226 941.8 226 C 944 226 945.8 225.4 947.1 224.2 C 948.3 223.1 949 221.6 949 219.7 C 949 218.2 948.6 216.9 947.7 216.1 C 946.8 215.2 945.7 214.4 944.3 214 C 943 213.6 941.1 213 938.8 212.5 C 935.9 211.8 933.5 211.2 931.9 210.5 C 930.1 209.8 928.7 208.7 927.5 207.3 C 926.3 205.9 925.6 203.9 925.6 201.3 C 925.6 198 926.8 195.4 929.2 193.4 C 931.6 191.4 934.9 190.3 939.1 190.3 C 943.4 190.3 947 191.4 949.7 193.8" fill="rgb(255,255,255)" fill-opacity="0.62" vector-effect="non-scaling-stroke" stroke-width="1" stroke="rgb(0,0,0)" stroke-opacity="0.5" stroke-linejoin="miter" stroke-linecap="butt" stroke-miterlimit="4"/></g></g></g></svg>